<?xml version="1.0" standalone="no"?>
<!DOCTYPE svg PUBLIC "-//W3C//DTD SVG 20010904//EN"
 "http://www.w3.org/TR/2001/REC-SVG-20010904/DTD/svg10.dtd">
<svg version="1.0" xmlns="http://www.w3.org/2000/svg"
 width="1035.000000pt" height="1035.000000pt" viewBox="0 0 1035.000000 1035.000000"
 preserveAspectRatio="xMidYMid meet">
<metadata>
Created by potrace 1.14, written by Peter Selinger 2001-2017
</metadata>
<g transform="translate(0.000000,1035.000000) scale(0.100000,-0.100000)"
fill="#000000" stroke="none">
<path d="M3085 6675 c-152 -31 -265 -116 -329 -247 -67 -138 -66 -109 -66
-1474 l0 -1224 315 0 315 0 0 490 0 490 230 0 230 0 0 -490 0 -490 315 0 316
0 -3 1258 c-3 1234 -4 1258 -24 1327 -55 189 -161 300 -337 353 -75 22 -857
28 -962 7z m651 -430 c43 -30 44 -46 42 -560 l-3 -490 -227 -3 -228 -2 0 500
c0 514 1 528 39 557 25 19 350 18 377 -2z"/>
<path d="M5325 6684 c-108 -22 -138 -30 -193 -57 -113 -55 -198 -169 -239
-319 -16 -58 -17 -172 -20 -1320 l-4 -1258 316 0 315 0 0 1215 c0 1309 -2
1257 49 1285 11 5 85 10 166 10 l147 0 29 -29 29 -29 0 -1226 0 -1226 315 0
315 0 0 1226 0 1226 29 29 29 29 148 0 c147 0 148 0 176 -27 l28 -27 0 -1228
0 -1228 315 0 315 0 0 1248 c0 1365 2 1319 -59 1448 -55 117 -153 197 -296
241 -53 16 -97 18 -365 18 -268 0 -312 -2 -365 -18 -94 -29 -173 -76 -223
-133 l-46 -53 -57 59 c-121 124 -227 151 -587 149 -136 -1 -256 -3 -267 -5z"/>
<path d="M1567 5748 l-757 -410 2 -231 3 -231 755 -408 c415 -224 758 -408
763 -408 4 0 7 116 7 258 l0 257 -501 255 c-276 140 -508 260 -517 266 -12 9
87 63 499 272 l514 260 3 266 c1 146 -1 265 -5 265 -5 -1 -349 -186 -766 -411z"/>
<path d="M8000 5896 l0 -265 517 -262 c413 -210 513 -264 501 -273 -8 -6 -241
-126 -517 -266 l-501 -255 0 -257 c0 -142 3 -258 8 -258 4 0 347 184 762 408
l755 407 3 232 2 231 -756 408 c-416 225 -761 411 -765 412 -5 2 -9 -116 -9
-262z"/>
</g>
</svg>
